<mxfile host="app.diagrams.net" modified="2024-07-08T05:49:42.644Z" agent="Mozilla/5.0 (Windows NT 10.0; Win64; x64) AppleWebKit/537.36 (KHTML, like Gecko) Chrome/123.0.0.0 Safari/537.36 OPR/109.0.0.0" version="24.6.4" etag="yGhyx3jbMsmf7mfGsnwk" type="github">
  <diagram name="Page-1" id="ofFIg5ue_UW8-0WlKuDV">
    <mxGraphModel>
      <root>
        <mxCell id="0" />
        <mxCell id="1" parent="0" />
      </root>
    </mxGraphModel>
  </diagram>
</mxfile>
